<svg width="22" height="16" viewBox="0 0 22 16" fill="none" xmlns="http://www.w3.org/2000/svg">
<path d="M13.4585 7.70833C13.4585 8.47083 13.1556 9.2021 12.6164 9.74126C12.0773 10.2804 11.346 10.5833 10.5835 10.5833C9.821 10.5833 9.08973 10.2804 8.55056 9.74126C8.0114 9.2021 7.7085 8.47083 7.7085 7.70833C7.7085 6.94583 8.0114 6.21457 8.55056 5.6754C9.08973 5.13623 9.821 4.83333 10.5835 4.83333C11.346 4.83333 12.0773 5.13623 12.6164 5.6754C13.1556 6.21457 13.4585 6.94583 13.4585 7.70833Z" stroke="black" stroke-opacity="0.25" stroke-width="2" stroke-linecap="round" stroke-linejoin="round"/>
<path d="M1 7.70833C2.53333 3.78204 6.11367 1 10.5833 1C15.053 1 18.6333 3.78204 20.1667 7.70833C18.6333 11.6346 15.053 14.4167 10.5833 14.4167C6.11367 14.4167 2.53333 11.6346 1 7.70833Z" stroke="black" stroke-opacity="0.25" stroke-width="2" stroke-linecap="round" stroke-linejoin="round"/>
</svg>
