<svg width="35" height="35" viewBox="0 0 35 35" fill="none" xmlns="http://www.w3.org/2000/svg">
<path d="M12.0313 27.3438C12.0313 27.9239 11.8008 28.4803 11.3906 28.8906C10.9803 29.3008 10.4239 29.5313 9.84378 29.5313C9.26362 29.5313 8.70722 29.3008 8.29698 28.8906C7.88675 28.4803 7.65628 27.9239 7.65628 27.3438M12.0313 27.3438C12.0313 26.7636 11.8008 26.2072 11.3906 25.797C10.9803 25.3867 10.4239 25.1563 9.84378 25.1563C9.26362 25.1563 8.70722 25.3867 8.29698 25.797C7.88675 26.2072 7.65628 26.7636 7.65628 27.3438M12.0313 27.3438H20.7813M7.65628 27.3438H4.9219C4.48678 27.3438 4.06948 27.1709 3.76181 26.8633C3.45413 26.5556 3.28128 26.1383 3.28128 25.7032V20.7813M20.7813 27.3438H24.0625M20.7813 27.3438V20.7813M3.28128 20.7813V9.6469C3.27896 9.24757 3.42487 8.86157 3.69076 8.56362C3.95665 8.26567 4.32363 8.07695 4.72065 8.03399C9.58134 7.52944 14.4812 7.52944 19.3419 8.03399C20.1659 8.11857 20.7813 8.81857 20.7813 9.6469V11.044M3.28128 20.7813H20.7813M28.4375 27.3438C28.4375 27.9239 28.2071 28.4803 27.7968 28.8906C27.3866 29.3008 26.8302 29.5313 26.25 29.5313C25.6699 29.5313 25.1135 29.3008 24.7032 28.8906C24.293 28.4803 24.0625 27.9239 24.0625 27.3438M28.4375 27.3438C28.4375 26.7636 28.2071 26.2072 27.7968 25.797C27.3866 25.3867 26.8302 25.1563 26.25 25.1563C25.6699 25.1563 25.1135 25.3867 24.7032 25.797C24.293 26.2072 24.0625 26.7636 24.0625 27.3438M28.4375 27.3438H30.0782C30.9838 27.3438 31.7246 26.6088 31.6677 25.7046C31.3747 20.8887 29.7528 16.2481 26.9821 12.2982C26.7182 11.9281 26.3736 11.623 25.9745 11.4057C25.5753 11.1884 25.132 11.0647 24.6779 11.044H20.7813M20.7813 11.044V20.7813" stroke="black" stroke-width="1.5" stroke-linecap="round" stroke-linejoin="round"/>
</svg>
