<svg width="35" height="35" viewBox="0 0 35 35" fill="none" xmlns="http://www.w3.org/2000/svg">
<path d="M8.75016 14.5833C7.146 14.5833 5.8335 15.8958 5.8335 17.5C5.8335 19.1041 7.146 20.4166 8.75016 20.4166C10.3543 20.4166 11.6668 19.1041 11.6668 17.5C11.6668 15.8958 10.3543 14.5833 8.75016 14.5833ZM26.2502 14.5833C24.646 14.5833 23.3335 15.8958 23.3335 17.5C23.3335 19.1041 24.646 20.4166 26.2502 20.4166C27.8543 20.4166 29.1668 19.1041 29.1668 17.5C29.1668 15.8958 27.8543 14.5833 26.2502 14.5833ZM17.5002 14.5833C15.896 14.5833 14.5835 15.8958 14.5835 17.5C14.5835 19.1041 15.896 20.4166 17.5002 20.4166C19.1043 20.4166 20.4168 19.1041 20.4168 17.5C20.4168 15.8958 19.1043 14.5833 17.5002 14.5833Z" fill="white"/>
</svg>
