<svg width="35" height="35" viewBox="0 0 35 35" fill="none" xmlns="http://www.w3.org/2000/svg">
<path d="M5.83325 26.2501C5.83325 24.703 6.44783 23.2193 7.5418 22.1253C8.63576 21.0313 10.1195 20.4167 11.6666 20.4167H23.3333C24.8803 20.4167 26.3641 21.0313 27.458 22.1253C28.552 23.2193 29.1666 24.703 29.1666 26.2501C29.1666 27.0236 28.8593 27.7655 28.3123 28.3125C27.7653 28.8595 27.0235 29.1667 26.2499 29.1667H8.74992C7.97637 29.1667 7.2345 28.8595 6.68752 28.3125C6.14054 27.7655 5.83325 27.0236 5.83325 26.2501Z" stroke="black" stroke-width="2" stroke-linejoin="round"/>
<path d="M17.5 14.5834C19.9162 14.5834 21.875 12.6246 21.875 10.2084C21.875 7.79213 19.9162 5.83337 17.5 5.83337C15.0838 5.83337 13.125 7.79213 13.125 10.2084C13.125 12.6246 15.0838 14.5834 17.5 14.5834Z" stroke="black" stroke-width="2"/>
</svg>
