<svg width="35" height="35" viewBox="0 0 35 35" fill="none" xmlns="http://www.w3.org/2000/svg">
<path d="M14.7962 4.73668C15.0141 4.19813 15.3879 3.73693 15.8696 3.41218C16.3513 3.08743 16.919 2.91394 17.5 2.91394C18.0809 2.91394 18.6486 3.08743 19.1304 3.41218C19.6121 3.73693 19.9858 4.19813 20.2037 4.73668C22.3602 5.32976 24.2624 6.61436 25.6182 8.39321C26.9739 10.1721 27.7082 12.3468 27.7083 14.5833V21.4331L30.38 25.4406C30.5265 25.6603 30.6107 25.9155 30.6235 26.1793C30.6363 26.443 30.5773 26.7052 30.4527 26.938C30.3282 27.1708 30.1427 27.3654 29.9162 27.5011C29.6897 27.6367 29.4307 27.7084 29.1666 27.7083H22.5531C22.3775 28.9233 21.7701 30.0343 20.842 30.8378C19.914 31.6414 18.7275 32.0837 17.5 32.0837C16.2724 32.0837 15.0859 31.6414 14.1579 30.8378C13.2299 30.0343 12.6224 28.9233 12.4468 27.7083H5.83331C5.56929 27.7084 5.31021 27.6367 5.08371 27.5011C4.85721 27.3654 4.6718 27.1708 4.54724 26.938C4.42269 26.7052 4.36366 26.443 4.37647 26.1793C4.38928 25.9155 4.47344 25.6603 4.61997 25.4406L7.29164 21.4331V14.5833C7.29164 9.88168 10.4708 5.92084 14.7962 4.73668ZM15.4379 27.7083C15.5885 28.1351 15.8678 28.5047 16.2372 28.7661C16.6067 29.0275 17.0481 29.1679 17.5007 29.1679C17.9533 29.1679 18.3947 29.0275 18.7642 28.7661C19.1336 28.5047 19.4129 28.1351 19.5635 27.7083H15.4379ZM17.5 7.29168C15.5661 7.29168 13.7114 8.05991 12.344 9.42736C10.9765 10.7948 10.2083 12.6495 10.2083 14.5833V21.875C10.2084 22.1631 10.1231 22.4447 9.96331 22.6844L8.55893 24.7917H26.4396L25.0352 22.6844C24.8759 22.4445 24.7911 22.1629 24.7916 21.875V14.5833C24.7916 12.6495 24.0234 10.7948 22.656 9.42736C21.2885 8.05991 19.4338 7.29168 17.5 7.29168Z" fill="black"/>
</svg>
