<svg width="35" height="35" viewBox="0 0 35 35" fill="none" xmlns="http://www.w3.org/2000/svg">
<path fill-rule="evenodd" clip-rule="evenodd" d="M17.5 12.0312C16.0496 12.0312 14.6586 12.6074 13.633 13.633C12.6074 14.6586 12.0312 16.0496 12.0312 17.5C12.0312 18.9504 12.6074 20.3414 13.633 21.367C14.6586 22.3926 16.0496 22.9688 17.5 22.9688C18.9504 22.9688 20.3414 22.3926 21.367 21.367C22.3926 20.3414 22.9688 18.9504 22.9688 17.5C22.9688 16.0496 22.3926 14.6586 21.367 13.633C20.3414 12.6074 18.9504 12.0312 17.5 12.0312ZM14.2188 17.5C14.2188 16.6298 14.5645 15.7952 15.1798 15.1798C15.7952 14.5645 16.6298 14.2188 17.5 14.2188C18.3702 14.2188 19.2048 14.5645 19.8202 15.1798C20.4355 15.7952 20.7812 16.6298 20.7812 17.5C20.7812 18.3702 20.4355 19.2048 19.8202 19.8202C19.2048 20.4355 18.3702 20.7812 17.5 20.7812C16.6298 20.7812 15.7952 20.4355 15.1798 19.8202C14.5645 19.2048 14.2188 18.3702 14.2188 17.5Z" fill="black"/>
<path fill-rule="evenodd" clip-rule="evenodd" d="M17.4637 1.82288C16.8147 1.82288 16.2737 1.82288 15.8303 1.85204C15.3772 1.87091 14.9302 1.96454 14.5076 2.12913C14.0209 2.33051 13.5786 2.6258 13.206 2.99813C12.8335 3.37046 12.5379 3.81254 12.3362 4.29913C12.1247 4.80954 12.0678 5.34913 12.0445 5.93538C12.0422 6.14978 11.9854 6.36008 11.8795 6.54654C11.7737 6.73301 11.6222 6.88953 11.4393 7.00142C11.251 7.10423 11.0396 7.15751 10.8251 7.15623C10.6106 7.15496 10.3999 7.09917 10.2128 6.99413C9.69366 6.71996 9.19783 6.49975 8.64949 6.42683C8.12733 6.35815 7.59675 6.39299 7.08805 6.52936C6.57935 6.66573 6.10249 6.90096 5.6847 7.22163C5.33146 7.50583 5.02745 7.84629 4.78491 8.22933C4.53699 8.59975 4.26574 9.06788 3.94199 9.62933L3.90554 9.6935C3.58033 10.255 3.31054 10.7231 3.11512 11.1227C2.91095 11.5398 2.75054 11.951 2.6922 12.406C2.55308 13.4604 2.83844 14.5268 3.48554 15.3708C3.82241 15.8098 4.26137 16.1291 4.7572 16.4412C4.94206 16.5505 5.09608 16.705 5.20476 16.8902C5.31344 17.0755 5.37321 17.2853 5.37845 17.5C5.37321 17.7146 5.31344 17.9245 5.20476 18.1097C5.09608 18.2949 4.94206 18.4494 4.7572 18.5587C4.26137 18.8708 3.82387 19.1902 3.48554 19.6291C3.16487 20.0469 2.92964 20.5238 2.79327 21.0325C2.6569 21.5412 2.62206 22.0718 2.69074 22.5939C2.75054 23.0489 2.90949 23.4602 3.11366 23.8772C3.31054 24.2768 3.58033 24.745 3.90554 25.3064L3.94199 25.3706C4.26574 25.932 4.53699 26.4002 4.78491 26.7706C5.04304 27.1541 5.32012 27.4998 5.6847 27.7768C6.10238 28.0978 6.57919 28.3332 7.08789 28.4699C7.5966 28.6065 8.12723 28.6416 8.64949 28.5731C9.19783 28.5002 9.69366 28.2814 10.2128 28.0058C10.3997 27.9009 10.6101 27.8452 10.8244 27.8439C11.0387 27.8426 11.2498 27.8958 11.4378 27.9985C11.6218 28.1095 11.7742 28.2658 11.8806 28.4524C11.9871 28.639 12.044 28.8497 12.046 29.0645C12.0678 29.6508 12.1247 30.1904 12.3376 30.7008C12.539 31.1875 12.8343 31.6298 13.2066 32.0024C13.579 32.375 14.021 32.6705 14.5076 32.8722C14.9305 33.0473 15.368 33.1158 15.8303 33.1464C16.2737 33.177 16.8147 33.177 17.4637 33.177H17.5366C18.1855 33.177 18.7266 33.177 19.1699 33.1479C19.6337 33.1158 20.0697 33.0473 20.4926 32.8708C20.9793 32.6694 21.4216 32.3741 21.7942 32.0018C22.1668 31.6295 22.4624 31.1874 22.6641 30.7008C22.8755 30.1904 22.9324 29.6508 22.9557 29.0645C22.9578 28.8499 23.0145 28.6393 23.1203 28.4526C23.2262 28.2658 23.3778 28.1091 23.561 27.997C23.7494 27.8944 23.9608 27.8414 24.1753 27.843C24.3898 27.8445 24.6005 27.9005 24.7874 28.0058C25.3066 28.28 25.8024 28.5002 26.3507 28.5716C27.4051 28.7107 28.4716 28.4254 29.3155 27.7783C29.6801 27.4983 29.9572 27.1541 30.2153 26.7706C30.4632 26.4002 30.7345 25.932 31.0582 25.3706L31.0947 25.3064C31.4199 24.745 31.6897 24.2768 31.8851 23.8772C32.0893 23.4602 32.2497 23.0475 32.308 22.5939C32.4472 21.5396 32.1618 20.4731 31.5147 19.6291C31.1778 19.1902 30.7389 18.8708 30.243 18.5587C30.0582 18.4494 29.9042 18.2949 29.7955 18.1097C29.6868 17.9245 29.627 17.7146 29.6218 17.5C29.6218 17.0945 29.8435 16.692 30.243 16.4412C30.7389 16.1291 31.1764 15.8098 31.5147 15.3708C31.8354 14.953 32.0706 14.4761 32.207 13.9674C32.3433 13.4587 32.3782 12.9282 32.3095 12.406C32.2401 11.9579 32.0972 11.5243 31.8866 11.1227C31.6376 10.6381 31.3735 10.1615 31.0947 9.6935L31.0582 9.62933C30.7918 9.15405 30.5107 8.68715 30.2153 8.22933C29.9728 7.8467 29.6688 7.50671 29.3155 7.22308C28.8979 6.90217 28.421 6.66667 27.9123 6.53005C27.4036 6.39343 26.873 6.35835 26.3507 6.42683C25.8024 6.49975 25.3066 6.7185 24.7874 6.99413C24.6005 7.09891 24.3901 7.15455 24.1759 7.15583C23.9616 7.1571 23.7505 7.10397 23.5624 7.00142C23.379 6.88988 23.2269 6.73351 23.1205 6.54703C23.0141 6.36054 22.9569 6.15006 22.9543 5.93538C22.9324 5.34913 22.8755 4.80954 22.6626 4.29913C22.4612 3.81241 22.166 3.37013 21.7936 2.99754C21.4213 2.62496 20.9792 2.32938 20.4926 2.12767C20.0697 1.95267 19.6322 1.88413 19.1699 1.8535C18.7266 1.82288 18.1855 1.82288 17.5366 1.82288H17.4637ZM15.3447 4.14892C15.457 4.10225 15.6276 4.05996 15.9791 4.03517C16.3393 4.01038 16.806 4.01038 17.5001 4.01038C18.1943 4.01038 18.661 4.01038 19.0212 4.03517C19.3726 4.05996 19.5432 4.10225 19.6555 4.14892C20.1032 4.33413 20.4576 4.6885 20.6428 5.13621C20.7012 5.27621 20.7493 5.49642 20.7682 6.01704C20.812 7.17204 21.4085 8.28475 22.4672 8.89579C23.526 9.50829 24.7874 9.46746 25.8097 8.92788C26.2705 8.68433 26.4849 8.61579 26.6366 8.59683C27.1157 8.53352 27.6004 8.66308 27.9841 8.95704C28.0803 9.03142 28.2028 9.15829 28.3997 9.44996C28.6024 9.75038 28.8357 10.1543 29.1828 10.7552C29.5299 11.356 29.7618 11.7614 29.9207 12.0852C30.0768 12.4016 30.1249 12.5708 30.1395 12.6918C30.2028 13.171 30.0732 13.6557 29.7793 14.0393C29.686 14.1604 29.5197 14.312 29.0793 14.5891C28.0993 15.2045 27.4343 16.2779 27.4343 17.5C27.4343 18.722 28.0993 19.7954 29.0793 20.4108C29.5197 20.6879 29.686 20.8395 29.7793 20.9606C30.0739 21.3441 30.2022 21.8283 30.1395 22.3081C30.1249 22.4291 30.0753 22.5998 29.9207 22.9148C29.7618 23.24 29.5299 23.6439 29.1828 24.2447C28.8357 24.8456 28.601 25.2495 28.3997 25.55C28.2028 25.8416 28.0803 25.9685 27.9841 26.0429C27.6004 26.3368 27.1157 26.4664 26.6366 26.4031C26.4849 26.3841 26.272 26.3156 25.8097 26.072C24.7889 25.5325 23.526 25.4916 22.4672 26.1027C21.4085 26.7152 20.812 27.8279 20.7682 28.9829C20.7493 29.5035 20.7012 29.7237 20.6428 29.8637C20.5512 30.0851 20.4169 30.2862 20.2475 30.4556C20.078 30.625 19.8769 30.7594 19.6555 30.851C19.5432 30.8977 19.3726 30.94 19.0212 30.9647C18.661 30.9895 18.1943 30.9895 17.5001 30.9895C16.806 30.9895 16.3393 30.9895 15.9791 30.9647C15.6276 30.94 15.457 30.8977 15.3447 30.851C15.1233 30.7594 14.9222 30.625 14.7528 30.4556C14.5834 30.2862 14.449 30.0851 14.3574 29.8637C14.2991 29.7237 14.251 29.5035 14.232 28.9829C14.1882 27.8279 13.5918 26.7152 12.533 26.1041C11.4743 25.4916 10.2128 25.5325 9.19054 26.072C8.7297 26.3156 8.51533 26.3841 8.36366 26.4031C7.8845 26.4664 7.39981 26.3368 7.01616 26.0429C6.91991 25.9685 6.79741 25.8416 6.60054 25.55C6.32624 25.123 6.06508 24.6877 5.81741 24.2447C5.47033 23.6439 5.23845 23.2385 5.07949 22.9148C4.92345 22.5983 4.87533 22.4291 4.86074 22.3081C4.79743 21.8289 4.92699 21.3442 5.22095 20.9606C5.31429 20.8395 5.48054 20.6879 5.92095 20.4108C6.90095 19.7954 7.56595 18.722 7.56595 17.5C7.56595 16.2779 6.90095 15.2045 5.92095 14.5891C5.48054 14.312 5.31429 14.1604 5.22095 14.0393C4.92699 13.6557 4.79743 13.171 4.86074 12.6918C4.87533 12.5708 4.92491 12.4002 5.07949 12.0852C5.23845 11.76 5.47033 11.356 5.81741 10.7552C6.16449 10.1543 6.39929 9.75038 6.60054 9.44996C6.79741 9.15829 6.91991 9.03142 7.01616 8.95704C7.39981 8.66308 7.8845 8.53352 8.36366 8.59683C8.51533 8.61579 8.72824 8.68433 9.19054 8.92788C10.2114 9.46746 11.4743 9.50829 12.533 8.89579C13.5918 8.28475 14.1882 7.17204 14.232 6.01704C14.251 5.49642 14.2991 5.27621 14.3574 5.13621C14.5426 4.6885 14.897 4.33413 15.3447 4.14892Z" fill="black"/>
</svg>
